<?xml version="1.0" encoding="UTF-8"?>
<svg id="Layer_1" data-name="Layer 1" xmlns="http://www.w3.org/2000/svg" viewBox="0 0 1920 443.48">
  <defs>
    <style>
      .cls-1 {
        fill: #ff0ae0;
      }

      .cls-2 {
        fill: #fff;
      }
    </style>
  </defs>
  <path class="cls-2" d="M95.63,411.48h0c-29.68,0-53.73-24.06-53.73-53.73s24.06-53.73,53.73-53.73,53.73,24.06,53.73,53.73-24.06,53.73-53.73,53.73"/>
  <path class="cls-2" d="M370.02,137.09h-137.19c-29.68,0-53.73-24.06-53.73-53.73s24.06-53.73,53.73-53.73h137.19c29.68,0,53.73,24.06,53.73,53.73s-24.06,53.73-53.73,53.73"/>
  <path class="cls-2" d="M232.83,274.29H95.63c-29.68,0-53.73-24.06-53.73-53.73s24.06-53.73,53.73-53.73h137.19c29.68,0,53.73,24.06,53.73,53.73s-24.06,53.73-53.73,53.73"/>
  <path class="cls-1" d="M370.02,166.82c-29.68,0-53.73,24.06-53.73,53.73v49.85c0,18.58-15.05,33.61-33.61,33.61h-49.85c-29.68,0-53.73,24.06-53.73,53.73s24.06,53.73,53.73,53.73h137.19c29.68,0,53.73-24.06,53.73-53.73v-137.19c0-14.84-6.03-28.27-15.74-37.99-9.72-9.72-23.15-15.74-37.99-15.74"/>
  <path class="cls-2" d="M95.63,136.56h0c-29.68,0-53.73-24.06-53.73-53.73s24.06-53.73,53.73-53.73,53.73,24.06,53.73,53.73-24.06,53.73-53.73,53.73"/>
  <path class="cls-2" d="M632.07,92.48c-11.15,12.12-16.7,28.18-16.7,48.16v13.24h50.11c6.86,0,12.43,1.98,16.7,5.91,4.26,3.93,6.38,9.17,6.38,15.72,0,5.91-2.12,10.81-6.38,14.74-4.26,3.93-9.84,5.88-16.7,5.88h-50.11v191.61c0,7.55-2.31,13.6-6.88,18.2-4.6,4.57-10.98,6.86-19.17,6.86-6.55,0-12.19-2.29-16.93-6.86-4.76-4.6-7.12-10.65-7.12-18.2v-191.61h-21.13c-6.88,0-12.46-1.95-16.72-5.88-4.26-3.93-6.38-8.84-6.38-14.74,0-6.55,2.12-11.79,6.38-15.72,4.26-3.93,9.84-5.91,16.72-5.91h21.13v-8.34c0-23.27,4.67-43.66,14-61.16,9.31-17.53,22.41-31.13,39.3-40.8,16.86-9.65,36.11-14.48,57.71-14.48,7.22,0,13.2,2.14,17.93,6.38,4.76,4.26,7.15,9.67,7.15,16.22s-2.38,11.96-7.15,16.22c-4.74,4.24-10.72,6.38-17.93,6.38-18.34,0-33.08,6.05-44.21,18.17"/>
  <path class="cls-2" d="M782.65,401.27c-11.29-7.69-20.08-18.51-26.29-32.42-6.22-13.93-9.34-29.56-9.34-46.92V53.67c0-7.22,2.31-13.1,6.88-17.7,4.6-4.57,10.48-6.88,17.7-6.88s13.1,2.31,17.7,6.88c4.57,4.6,6.86,10.48,6.86,17.7v268.26c0,12.12,2.29,22.1,6.88,29.96,4.57,7.86,10.48,11.79,17.7,11.79h12.27c6.55,0,11.89,2.29,15.98,6.88,4.1,4.6,6.14,10.48,6.14,17.67s-3.12,13.12-9.34,17.7c-6.24,4.6-14.24,6.88-24.08,6.88h-.98c-14.1,0-26.79-3.86-38.08-11.55"/>
  <path class="cls-2" d="M940.35,203.99c-14.91,13.12-24.32,30.63-28.25,52.59h163.6c-2.93-21.96-11.12-39.47-24.56-52.59-13.43-13.08-30.96-19.65-52.57-19.65-23.91,0-43.32,6.57-58.23,19.65M1114.53,289.74c-4.26,4.1-9.67,6.14-16.22,6.14h-186.68c3.6,22.94,14,41.44,31.2,55.52,17.2,14.08,38.23,21.13,63.12,21.13,9.84,0,20.05-1.81,30.72-5.41,10.62-3.6,19.39-8.03,26.27-13.27,4.57-3.6,9.98-5.41,16.22-5.41s11.12,1.64,14.74,4.91c5.88,4.93,8.84,10.5,8.84,16.72,0,5.88-2.62,10.79-7.86,14.74-11.15,8.84-24.98,16.03-41.51,21.6-16.55,5.57-32.34,8.36-47.42,8.36-26.84,0-50.92-5.81-72.22-17.43-21.29-11.62-37.92-27.77-49.87-48.4-11.96-20.65-17.93-44.06-17.93-70.26s5.64-49.71,16.96-70.5c11.29-20.79,27.03-37.01,47.16-48.64,20.15-11.62,42.99-17.46,68.55-17.46s46.99,5.57,65.33,16.72c18.34,11.12,32.44,26.7,42.25,46.66,9.84,19.98,14.74,42.92,14.74,68.79,0,6.24-2.12,11.38-6.38,15.48"/>
  <path class="cls-2" d="M1370.99,392.17c0,5.91-2.05,10.81-6.14,14.74-4.1,3.93-9.41,5.88-15.96,5.88-7.86,0-13.77-2.6-17.7-7.86l-78.12-93.34-74.19,93.34c-4.91,5.26-10.79,7.86-17.67,7.86s-11.72-1.95-15.48-5.88c-3.76-3.93-5.64-8.84-5.64-14.74,0-6.55,2.29-12.6,6.88-18.17l76.15-95.32-81.08-95.79c-4.91-5.91-7.36-12.12-7.36-18.67,0-5.57,1.88-10.34,5.64-14.27s9.1-5.88,15.98-5.88c7.86,0,14.08,2.79,18.65,8.36l80.58,96.3,72.24-96.3c4.24-5.57,10.31-8.36,18.17-8.36,6.55,0,11.69,2.05,15.48,6.14,3.76,4.1,5.64,9.07,5.64,14.98,0,7.22-2.29,13.77-6.88,19.65l-74.19,96.8,78.12,93.34c4.6,4.91,6.88,10.65,6.88,17.2"/>
  <path class="cls-2" d="M1566.27,358.77c13.27-7.86,23.58-18.74,30.96-32.68,7.36-13.91,11.05-29.72,11.05-47.42s-3.69-33.56-11.05-47.66c-7.38-14.08-17.7-25.06-30.96-32.92-13.27-7.86-28.25-11.79-44.94-11.79s-31.7,3.93-44.97,11.79c-13.27,7.86-23.65,18.84-31.18,32.92-7.55,14.1-11.31,29.99-11.31,47.66s3.76,33.51,11.31,47.42c7.53,13.93,17.91,24.82,31.18,32.68s28.25,11.79,44.97,11.79,31.68-3.93,44.94-11.79M1451.06,397.34c-20.63-11.62-36.68-27.77-48.14-48.4-11.48-20.63-17.2-44.04-17.2-70.26s5.72-50.11,17.2-70.74c11.46-20.63,27.51-36.77,48.14-48.4,20.63-11.62,44.06-17.43,70.26-17.43s49.04,5.81,69.52,17.43c20.46,11.62,36.51,27.77,48.14,48.4,11.62,20.63,17.46,44.21,17.46,70.74s-5.74,49.64-17.2,70.26c-11.48,20.63-27.44,36.77-47.92,48.4-20.46,11.62-43.8,17.43-70,17.43s-49.64-5.81-70.26-17.43"/>
  <path class="cls-2" d="M1864.25,148.98c9.84,5.24,14.74,11.79,14.74,19.65,0,2.29-.17,3.93-.5,4.91-2.95,10.5-9.5,15.72-19.65,15.72-1.64,0-4.1-.31-7.36-.98-13.12-2.29-23.77-3.43-31.94-3.43-23.58,0-42.59,5.41-57,16.22-14.41,10.79-21.63,25.37-21.63,43.71v143.48c0,7.86-2.05,13.91-6.12,18.17-4.12,4.26-10.24,6.38-18.43,6.38s-13.93-2.05-18.17-6.14c-4.26-4.1-6.38-10.22-6.38-18.41v-219.62c0-7.86,2.12-13.91,6.38-18.17,4.24-4.26,10.31-6.38,18.17-6.38,16.36,0,24.56,8.19,24.56,24.56v9.34c9.84-11.46,21.96-20.46,36.37-27.03,14.41-6.53,29.8-9.81,46.18-9.81,17.36,0,30.94,2.62,40.78,7.86"/>
</svg>