<?xml version="1.0" encoding="UTF-8"?>
<svg id="Layer_1" data-name="Layer 1" xmlns="http://www.w3.org/2000/svg" viewBox="0 0 1920 1760">
  <defs>
    <style>
      .cls-1 {
        fill: #ff0ae0;
      }

      .cls-2 {
        fill: #fff;
      }
    </style>
  </defs>
  <path class="cls-2" d="M382.46,1684.84h0c-124.92,0-226.19-101.28-226.2-226.19-.01-124.93,101.27-226.21,226.2-226.2,124.93-.01,226.21,101.27,226.19,226.2.02,124.92-101.26,226.2-226.19,226.19"/>
  <path class="cls-2" d="M1537.54,529.78h-577.53c-124.91,0-226.19-101.28-226.19-226.19-.02-124.93,101.26-226.21,226.19-226.2h577.53c124.93-.01,226.21,101.27,226.2,226.2.01,124.92-101.27,226.2-226.2,226.19"/>
  <path class="cls-2" d="M959.99,1107.31H382.46c-124.91,0-226.19-101.28-226.19-226.19-.02-124.93,101.26-226.21,226.19-226.2h577.53c124.93-.01,226.21,101.27,226.19,226.2.02,124.92-101.26,226.2-226.19,226.19"/>
  <path class="cls-2" d="M382.46,527.54h0c-124.92,0-226.19-101.28-226.2-226.19-.01-124.93,101.27-226.21,226.2-226.2,124.93-.01,226.21,101.27,226.19,226.2.02,124.92-101.26,226.2-226.19,226.19"/>
  <g>
    <path d="M382.46,1684.84h0c-124.92,0-226.19-101.28-226.2-226.19-.01-124.93,101.27-226.21,226.2-226.2,124.93-.01,226.21,101.27,226.19,226.2.02,124.92-101.26,226.2-226.19,226.19"/>
    <path d="M1537.54,529.78h-577.53c-124.91,0-226.19-101.28-226.19-226.19-.02-124.93,101.26-226.21,226.19-226.2h577.53c124.93-.01,226.21,101.27,226.2,226.2.01,124.92-101.27,226.2-226.2,226.19"/>
    <path d="M959.99,1107.31H382.46c-124.91,0-226.19-101.28-226.19-226.19-.02-124.93,101.26-226.21,226.19-226.2h577.53c124.93-.01,226.21,101.27,226.19,226.2.02,124.92-101.26,226.2-226.19,226.19"/>
    <path class="cls-1" d="M1537.54,654.92c-124.94,0-226.22,101.28-226.19,226.19l-.03,209.91c.01,78.11-63.29,141.42-141.41,141.42h-209.9c-124.94.01-226.22,101.29-226.19,226.2-.03,124.92,101.25,226.2,226.19,226.2h577.52c124.91.01,226.19-101.27,226.21-226.2h-.02s.02-577.53.02-577.53c-.02-62.46-25.34-119-66.27-159.93-40.93-40.93-97.48-66.26-159.92-66.26"/>
    <path d="M382.46,527.54h0c-124.92,0-226.19-101.28-226.2-226.19-.01-124.93,101.27-226.21,226.2-226.2,124.93-.01,226.21,101.27,226.19,226.2.02,124.92-101.26,226.2-226.19,226.19"/>
  </g>
</svg>